<?xml version="1.0" encoding="UTF-8"?>
<svg id="_レイヤー_2" data-name="レイヤー 2" xmlns="http://www.w3.org/2000/svg" viewBox="0 0 51.08 18.47">
  <defs>
    <style>
      .cls-1 {
        fill: #001829;
      }
    </style>
  </defs>
  <g id="_レイヤー_1-2" data-name="レイヤー 1">
    <path class="cls-1" d="M3.1,14.01c-1.24-1.12-2.36-2.6-3.1-4.09C4.59,2.23,10.04,0,15.38,0c4.46,0,9.42,2.23,12.77,3.97,2.73,1.36,4.96,2.23,7.19,2.23,2.6,0,5.08-1.36,8.31-4.84,1.49.87,2.85,1.74,4.09,2.85,1.36,1.24,2.48,2.73,3.35,4.22-4.59,7.56-9.92,10.04-15,10.04-4.59,0-9.67-2.11-13.27-4.09-2.6-1.36-4.71-2.11-6.82-2.11-2.85,0-5.33,1.36-8.56,4.96-1.61-.87-3.1-1.98-4.34-3.22Z"/>
  </g>
</svg>
